<?xml version="1.0" encoding="iso-8859-1"?>
<!-- Generator: Adobe Illustrator 19.0.0, SVG Export Plug-In . SVG Version: 6.00 Build 0)  -->
<svg version="1.1" id="Capa_1" xmlns="http://www.w3.org/2000/svg" xmlns:xlink="http://www.w3.org/1999/xlink" x="0px" y="0px"
	 viewBox="0 0 512 512" style="enable-background:new 0 0 512 512;" xml:space="preserve">
<g>
	<g>
		<path d="M459.539,468.39c-0.129-0.64-0.32-1.26-0.57-1.87c-0.25-0.6-0.56-1.18-0.92-1.72c-0.36-0.55-0.78-1.059-1.24-1.53
			c-1.859-1.859-4.439-2.92-7.069-2.92c-2.631,0-5.21,1.061-7.07,2.92c-0.46,0.47-0.88,0.98-1.25,1.53
			c-0.36,0.54-0.67,1.12-0.92,1.72c-0.25,0.61-0.44,1.23-0.57,1.87c-0.13,0.65-0.19,1.3-0.19,1.96c0,0.65,0.06,1.31,0.19,1.95
			s0.32,1.269,0.57,1.87c0.25,0.6,0.56,1.18,0.92,1.73c0.37,0.54,0.79,1.06,1.25,1.52c1.86,1.861,4.439,2.93,7.07,2.93
			c0.65,0,1.31-0.07,1.949-0.201c0.641-0.13,1.27-0.319,1.87-0.569c0.61-0.25,1.19-0.561,1.73-0.92c0.55-0.36,1.06-0.78,1.52-1.24
			c0.46-0.459,0.88-0.98,1.24-1.52c0.361-0.55,0.67-1.13,0.92-1.73c0.25-0.6,0.44-1.23,0.57-1.87c0.13-0.639,0.2-1.3,0.2-1.95
			C459.739,469.69,459.669,469.04,459.539,468.39z"/>
	</g>
</g>
<g>
	<g>
		<path d="M409.738,460.347H62.137c-5.522,0-10,4.477-10,10c0,5.522,4.478,10,10,10h347.6c5.523,0,10-4.478,10.001-10
			C419.738,464.824,415.26,460.347,409.738,460.347z"/>
	</g>
</g>
<g>
	<g>
		<path d="M203.461,148.666h-43.95c-5.522,0-10,4.478-10,10v43.951c0,5.522,4.478,10,10,10h43.95c5.522,0,10-4.477,10-10v-43.951
			C213.461,153.144,208.984,148.666,203.461,148.666z M193.461,192.617h-23.95v-23.951h23.95V192.617z"/>
	</g>
</g>
<g>
	<g>
		<path d="M352.489,148.666h-43.95c-5.523,0-10,4.478-10,10v43.951c0,5.522,4.477,10,10,10h43.95c5.523,0,10-4.477,10-10v-43.951
			C362.489,153.144,358.011,148.666,352.489,148.666z M342.489,192.617h-23.95v-23.951h23.95V192.617z"/>
	</g>
</g>
<g>
	<g>
		<path d="M277.976,148.666h-43.951c-5.522,0-10,4.478-10,10v43.951c0,5.522,4.478,10,10,10h43.951c5.522,0,10-4.477,10-10v-43.951
			C287.976,153.144,283.498,148.666,277.976,148.666z M267.975,192.617h-23.951v-23.951h23.951V192.617z"/>
	</g>
</g>
<g>
	<g>
		<path d="M203.461,39.068h-43.95c-5.522,0-10,4.477-10,10v43.95c0,5.522,4.478,10,10,10h43.95c5.522,0,10-4.478,10-10v-43.95
			C213.461,43.545,208.984,39.068,203.461,39.068z M193.461,83.018h-23.95v-23.95h23.95V83.018z"/>
	</g>
</g>
<g>
	<g>
		<path d="M352.489,39.068h-43.95c-5.523,0-10,4.477-10,10v43.95c0,5.522,4.477,10,10,10h43.95c5.523,0,10-4.478,10-10v-43.95
			C362.489,43.545,358.011,39.068,352.489,39.068z M342.489,83.018h-23.95v-23.95h23.95V83.018z"/>
	</g>
</g>
<g>
	<g>
		<path d="M277.976,39.068h-43.951c-5.522,0-10,4.477-10,10v43.95c0,5.522,4.478,10,10,10h43.951c5.522,0,10-4.478,10-10v-43.95
			C287.976,43.545,283.498,39.068,277.976,39.068z M267.975,83.018h-23.951v-23.95h23.951V83.018z"/>
	</g>
</g>
<g>
	<g>
		<path d="M203.461,228.263h-43.95c-5.522,0-10,4.478-10,10v43.95c0,5.523,4.478,10,10,10h43.95c5.522,0,10-4.478,10-10v-43.95
			C213.461,232.741,208.984,228.263,203.461,228.263z M193.461,272.213h-23.95v-23.95h23.95V272.213z"/>
	</g>
</g>
<g>
	<g>
		<path d="M352.489,228.263h-43.95c-5.523,0-10,4.478-10,10v43.95c0,5.523,4.477,10,10,10h43.95c5.523,0,10-4.478,10-10v-43.95
			C362.489,232.741,358.011,228.263,352.489,228.263z M342.489,272.213h-23.95v-23.95h23.95V272.213z"/>
	</g>
</g>
<g>
	<g>
		<path d="M277.976,228.263h-43.951c-5.522,0-10,4.478-10,10v43.95c0,5.523,4.478,10,10,10h43.951c5.522,0,10-4.478,10-10v-43.95
			C287.976,232.741,283.498,228.263,277.976,228.263z M267.975,272.213h-23.951v-23.95h23.951V272.213z"/>
	</g>
</g>
<g>
	<g>
		<path d="M507.405,332.52c-9.205-6.627-27.447-9.607-37.461-9.607c-9.514,0-18.743,2.687-26.687,7.549v-31.174
			c28.766-4.783,50.767-29.842,50.767-59.944c0-15.693-6.065-30.695-16.808-41.953c0.092-1.163,0.138-2.331,0.138-3.5
			c0-24.315-19.781-44.098-44.097-44.098c-18.364,0-34.141,11.284-40.765,27.282V10c0-5.523-4.478-10-10-10H129.508
			c-5.522,0-10,4.477-10,10v167.08c-6.622-16.001-22.401-27.287-40.767-27.287c-24.315,0-44.097,19.782-44.097,44.098
			c0,1.169,0.046,2.337,0.138,3.499c-10.742,11.258-16.808,26.26-16.808,41.954c0,30.102,22.001,55.161,50.767,59.944v26.61
			c-2.119,0.761-4.19,1.664-6.199,2.707c-15.185-10.436-32.736-16.751-51.173-18.357c-2.787-0.243-5.559,0.695-7.625,2.59
			c-2.066,1.895-3.243,4.569-3.243,7.372L0.439,501.98c-0.005,2.655,1.046,5.204,2.922,7.084C5.236,510.943,7.783,512,10.439,512
			h490.998c5.516,0,9.989-4.465,10-9.98l0.125-161.385C511.562,337.418,510.015,334.399,507.405,332.52z M392.492,239.055
			c0.083-11.681,5.173-22.767,13.994-30.456c2.74-2.389,3.968-6.077,3.207-9.632c-0.354-1.652-0.533-3.36-0.533-5.076
			c0-13.287,10.809-24.098,24.097-24.098s24.097,10.811,24.097,24.098c0,1.716-0.18,3.424-0.533,5.076
			c-0.761,3.555,0.467,7.243,3.207,9.632c8.895,7.753,13.996,18.959,13.996,30.745c0,19.029-13.107,35.055-30.767,39.525v-16.9
			c0.13-0.117,0.258-0.239,0.384-0.364l18.247-18.247c3.905-3.905,3.905-10.237,0-14.143c-3.906-3.904-10.236-3.904-14.143,0
			l-4.488,4.488V212.92c0-5.522-4.478-10-10-10c-5.522,0-10,4.478-10,10v20.784l-4.488-4.488c-3.906-3.904-10.236-3.904-14.143,0
			c-3.905,3.905-3.905,10.237,0,14.143l18.247,18.247c0.125,0.125,0.253,0.247,0.384,0.364v16.9
			c-17.565-4.446-30.625-20.324-30.765-39.219V239.055z M392.492,284.37c8.444,7.652,19.043,12.968,30.765,14.917v29.606
			c-9.388-6.522-19.753-11.49-30.765-14.721V284.37z M392.492,335.228c11.463,4.237,21.922,10.866,30.765,19.55v29.823h-30.765
			V335.228z M139.508,20h232.984v95.67H139.508V20z M139.508,135.67h232.984v103.213c-0.001,0.154-0.002,0.307-0.002,0.461
			c0,0.156,0.001,0.312,0.002,0.468v144.789h-75.825v-60.166c0-5.522-4.478-10-10-10h-61.334c-5.523,0-10,4.478-10,10v60.166
			h-75.825V135.67z M276.667,334.435v50.166h-41.334v-50.166H276.667z M423.257,404.601v23.33H88.741v-23.33H423.257z
			 M111.168,355.734c1.955,2.685,5.093,4.184,8.34,4.112V384.6H88.741v-41.566C97.627,343.827,105.865,348.448,111.168,355.734z
			 M88.741,322.987v-23.699c11.723-1.949,22.322-7.266,30.767-14.919v51.076C110.977,328.055,100.136,323.604,88.741,322.987z
			 M37.974,239.344c0-11.786,5.102-22.992,13.995-30.745c2.741-2.389,3.969-6.076,3.208-9.632c-0.354-1.652-0.533-3.36-0.533-5.076
			c0-13.287,10.81-24.098,24.097-24.098s24.097,10.811,24.097,24.098c0,1.713-0.18,3.422-0.534,5.08
			c-0.76,3.554,0.469,7.24,3.208,9.628c8.895,7.753,13.996,18.959,13.996,30.745c0,19.029-13.107,35.055-30.767,39.525v-16.9
			c0.13-0.117,0.258-0.239,0.384-0.364l18.247-18.247c3.905-3.905,3.905-10.237,0-14.143c-3.906-3.904-10.236-3.904-14.143,0
			l-4.488,4.488V212.92c0-5.522-4.478-10-10-10c-5.522,0-10,4.478-10,10v20.784l-4.488-4.488c-3.906-3.904-10.236-3.904-14.142,0
			c-3.905,3.905-3.905,10.237,0,14.143l18.247,18.247c0.126,0.125,0.253,0.247,0.384,0.364v16.9
			C51.081,274.399,37.974,258.373,37.974,239.344z M20.5,331.815c12.84,2.781,24.893,8.449,35.332,16.675
			c3.503,2.76,8.411,2.869,12.032,0.261c0.289-0.208,0.581-0.41,0.876-0.608v79.789H20.5V331.815z M491.456,492H20.458l0.086-44.069
			h470.998L491.456,492z M491.561,427.93h-48.305v-70.534c0.563-0.487,1.076-1.043,1.526-1.662
			c5.844-8.029,15.25-12.822,25.161-12.822c6.69,0,15.871,1.723,21.618,3.826V427.93z"/>
	</g>
</g>
<g>
</g>
<g>
</g>
<g>
</g>
<g>
</g>
<g>
</g>
<g>
</g>
<g>
</g>
<g>
</g>
<g>
</g>
<g>
</g>
<g>
</g>
<g>
</g>
<g>
</g>
<g>
</g>
<g>
</g>
</svg>
