<?xml version="1.0" encoding="iso-8859-1"?>
<!-- Generator: Adobe Illustrator 16.0.0, SVG Export Plug-In . SVG Version: 6.00 Build 0)  -->
<!DOCTYPE svg PUBLIC "-//W3C//DTD SVG 1.1//EN" "http://www.w3.org/Graphics/SVG/1.1/DTD/svg11.dtd">
<svg version="1.1" id="Capa_1" xmlns="http://www.w3.org/2000/svg" xmlns:xlink="http://www.w3.org/1999/xlink" x="0px" y="0px"
	 width="486.09px" height="486.09px" viewBox="0 0 486.09 486.09" style="enable-background:new 0 0 486.09 486.09;"
	 xml:space="preserve">
<g>
	<g id="iconos_4_">
		<path d="M486.09,442.16v-31.078c0-21.124-12.346-33.469-33.469-33.469H242.247c-28.391,0-43.031,13.445-43.031,33.469v40.344
			c0,20.914,14.047,31.375,43.031,31.375h210.375C473.744,482.801,486.09,468.754,486.09,442.16z M447.84,444.551H237.465v-28.688
			H447.84V444.551z"/>
		<path d="M323.527,157.676v9.562v81.96l0,0v0.01l12.184,32.78h-20.502L115.18,3.289L71.106,29.873l3.796,6.665v256.026l-5.307,0.88
			l-4.255,0.296v0.612C27.253,302.644,0,337.126,0,378.024c0,47.286,39.015,85.767,86.961,85.767
			c47.086,0,83.969-37.667,83.969-85.767c0-45.785-31.413-80.096-76.902-84.991V71.326l9.562,18.035l9.562,18.035l114.75,220.846
			v1.521v2.878v6.723h38.25v19.125h133.875h9.562v-19.125h47.812h9.562V157.676H323.527z M111.91,79.321L95.405,47.975
			l25.733-16.916L111.91,79.321z M134.286,50.585l18.341,31.824l-29.605,19.068L134.286,50.585z M154.195,151.298l-16.974-31.538
			l27.894-18.14L154.195,151.298z M176.906,117.829l20.569,29.997L166.55,167.63L176.906,117.829z M173.731,190.485l34.559-23.677
			l-19.68,52.708L173.731,190.485z M221.974,181.486l18.828,25.915l0.115,0.163l-39.015,25.389L221.974,181.486z M224.881,281.414
			L208.204,252l41.376-29.548L224.881,281.414z M237.867,302.309l28.286-60.961l23.008,31.375L237.867,302.309z M428.715,253.301
			h-66.938v-57.375h66.938V253.301z"/>
	</g>
</g>
<g>
</g>
<g>
</g>
<g>
</g>
<g>
</g>
<g>
</g>
<g>
</g>
<g>
</g>
<g>
</g>
<g>
</g>
<g>
</g>
<g>
</g>
<g>
</g>
<g>
</g>
<g>
</g>
<g>
</g>
</svg>
