<?xml version="1.0" encoding="iso-8859-1"?>
<!-- Generator: Adobe Illustrator 19.0.0, SVG Export Plug-In . SVG Version: 6.00 Build 0)  -->
<svg version="1.1" id="Capa_1" xmlns="http://www.w3.org/2000/svg" xmlns:xlink="http://www.w3.org/1999/xlink" x="0px" y="0px"
	 viewBox="0 0 480 480" style="enable-background:new 0 0 480 480;" xml:space="preserve">
<g>
	<g>
		<g>
			<path d="M408,0H280c-4.418,0-8,3.582-8,8v464c0,4.418,3.582,8,8,8h128c4.418,0,8-3.582,8-8V8C416,3.582,412.418,0,408,0z
				 M400,464H288v-64h24c4.418,0,8-3.582,8-8s-3.582-8-8-8h-24v-16h40c4.418,0,8-3.582,8-8s-3.582-8-8-8h-40v-16h24
				c4.418,0,8-3.582,8-8s-3.582-8-8-8h-24v-16h40c4.418,0,8-3.582,8-8s-3.582-8-8-8h-40v-16h24c4.418,0,8-3.582,8-8s-3.582-8-8-8
				h-24v-16h40c4.418,0,8-3.582,8-8s-3.582-8-8-8h-40v-16h24c4.418,0,8-3.582,8-8s-3.582-8-8-8h-24v-16h40c4.418,0,8-3.582,8-8
				s-3.582-8-8-8h-40v-16h24c4.418,0,8-3.582,8-8s-3.582-8-8-8h-24v-16h40c4.418,0,8-3.582,8-8s-3.582-8-8-8h-40V80h24
				c4.418,0,8-3.582,8-8s-3.582-8-8-8h-24V48h40c4.418,0,8-3.582,8-8s-3.582-8-8-8h-40V16h112V464z"/>
			<path d="M320,432c0,13.255,10.745,24,24,24s24-10.745,24-24s-10.745-24-24-24S320,418.745,320,432z M344,424c4.418,0,8,3.582,8,8
				s-3.582,8-8,8s-8-3.582-8-8S339.582,424,344,424z"/>
			<path d="M136,0h-32C81.92,0.026,64.026,17.92,64,40v352.04c0.02,0.935,0.207,1.859,0.552,2.728
				c0.088,0.232,0.184,0.448,0.288,0.672c0.084,0.233,0.182,0.46,0.296,0.68l48,80c2.277,3.786,7.192,5.01,10.979,2.733
				c1.121-0.674,2.059-1.613,2.733-2.733l48-80c0.113-0.22,0.212-0.447,0.296-0.68c0.104-0.224,0.2-0.432,0.288-0.664
				c0.349-0.871,0.542-1.798,0.568-2.736V40C175.974,17.92,158.08,0.026,136,0z M80,128h32v256H80V128z M120,456.448L86.128,400
				h67.744L120,456.448z M160,384h-32V128h32V384z M160,112H80V96h80V112z M160,80H80V40c0-13.255,10.745-24,24-24h32
				c13.255,0,24,10.745,24,24V80z"/>
		</g>
	</g>
</g>
<g>
</g>
<g>
</g>
<g>
</g>
<g>
</g>
<g>
</g>
<g>
</g>
<g>
</g>
<g>
</g>
<g>
</g>
<g>
</g>
<g>
</g>
<g>
</g>
<g>
</g>
<g>
</g>
<g>
</g>
</svg>
