<?xml version="1.0" encoding="iso-8859-1"?>
<!-- Generator: Adobe Illustrator 18.0.0, SVG Export Plug-In . SVG Version: 6.00 Build 0)  -->
<!DOCTYPE svg PUBLIC "-//W3C//DTD SVG 1.1//EN" "http://www.w3.org/Graphics/SVG/1.1/DTD/svg11.dtd">
<svg version="1.1" id="Capa_1" xmlns="http://www.w3.org/2000/svg" xmlns:xlink="http://www.w3.org/1999/xlink" x="0px" y="0px"
	 viewBox="0 0 448.992 448.992" style="enable-background:new 0 0 448.992 448.992;" xml:space="preserve">
<g>
	<path d="M144.953,228.698c-1.573-1.573-3.939-2.044-5.994-1.192c-2.055,0.851-3.395,2.857-3.395,5.081v97.609
		c0,3.038,2.462,5.5,5.5,5.5h97.608c2.225,0,4.23-1.34,5.082-3.395c0.851-2.055,0.38-4.421-1.192-5.994L144.953,228.698z
		 M146.564,324.696v-78.831l78.83,78.831H146.564z"/>
	<path d="M422.521,33.882L393.924,5.285c-2.148-2.148-5.63-2.147-7.778,0L220.874,170.557c-0.529,0.529-0.944,1.16-1.221,1.854
		l-18.116,45.488L128.639,145l13.082-13.081c2.148-2.148,2.148-5.63,0-7.778c-2.148-2.148-5.63-2.148-7.778,0l-13.082,13.081
		l-21.944-21.944V5.5c0-3.038-2.462-5.5-5.5-5.5H30.361c-3.038,0-5.5,2.462-5.5,5.5v437.992c0,3.038,2.462,5.5,5.5,5.5h63.056
		c3.038,0,5.5-2.462,5.5-5.5v-60.149h252.509l15.36,15.36c1.074,1.074,2.481,1.611,3.889,1.611s2.815-0.537,3.889-1.611
		c2.148-2.148,2.148-5.63,0-7.778L209.907,226.268l45.488-18.116c0.694-0.277,1.325-0.692,1.854-1.22L422.521,41.66
		c1.031-1.031,1.611-2.43,1.611-3.889S423.552,34.913,422.521,33.882z M87.916,437.992H35.861v-9.787h9.447
		c3.038,0,5.5-2.462,5.5-5.5s-2.462-5.5-5.5-5.5h-9.447v-17.316h9.447c3.038,0,5.5-2.462,5.5-5.5s-2.462-5.5-5.5-5.5h-9.447v-17.315
		h9.447c3.038,0,5.5-2.462,5.5-5.5s-2.462-5.5-5.5-5.5h-9.447v-17.316h9.447c3.038,0,5.5-2.462,5.5-5.5s-2.462-5.5-5.5-5.5h-9.447
		v-17.315h9.447c3.038,0,5.5-2.462,5.5-5.5s-2.462-5.5-5.5-5.5h-9.447v-17.316h9.447c3.038,0,5.5-2.462,5.5-5.5s-2.462-5.5-5.5-5.5
		h-9.447v-17.315h9.447c3.038,0,5.5-2.462,5.5-5.5s-2.462-5.5-5.5-5.5h-9.447v-17.316h9.447c3.038,0,5.5-2.462,5.5-5.5
		s-2.462-5.5-5.5-5.5h-9.447v-17.315h9.447c3.038,0,5.5-2.462,5.5-5.5s-2.462-5.5-5.5-5.5h-9.447v-17.316h9.447
		c3.038,0,5.5-2.462,5.5-5.5s-2.462-5.5-5.5-5.5h-9.447V145.05h9.447c3.038,0,5.5-2.462,5.5-5.5s-2.462-5.5-5.5-5.5h-9.447v-17.316
		h9.447c3.038,0,5.5-2.462,5.5-5.5s-2.462-5.5-5.5-5.5h-9.447V88.418h9.447c3.038,0,5.5-2.462,5.5-5.5s-2.462-5.5-5.5-5.5h-9.447
		V60.103h9.447c3.038,0,5.5-2.462,5.5-5.5s-2.462-5.5-5.5-5.5h-9.447V31.787h9.447c3.038,0,5.5-2.462,5.5-5.5s-2.462-5.5-5.5-5.5
		h-9.447V11h52.056V437.992z M98.916,372.343v-241.51l26.766,26.766l-15.649,15.649c-2.148,2.148-2.148,5.63,0,7.778
		c1.074,1.074,2.481,1.611,3.889,1.611s2.815-0.537,3.889-1.611l15.649-15.649l12.244,12.244l-15.649,15.649
		c-2.148,2.148-2.148,5.63,0,7.778c1.074,1.074,2.481,1.611,3.889,1.611s2.815-0.537,3.889-1.611l15.649-15.649l12.244,12.244
		l-15.649,15.649c-2.148,2.148-2.148,5.63,0,7.778c1.074,1.074,2.481,1.611,3.889,1.611s2.815-0.537,3.889-1.611l15.649-15.649
		l12.244,12.244l-15.649,15.649c-2.148,2.148-2.148,5.63,0,7.778c1.074,1.074,2.481,1.611,3.889,1.611s2.815-0.537,3.889-1.611
		l15.649-15.649l12.244,12.244l-15.649,15.649c-2.148,2.148-2.148,5.63,0,7.778c1.074,1.074,2.481,1.611,3.889,1.611
		s2.815-0.537,3.889-1.611l15.649-15.649l12.244,12.244l-15.649,15.649c-2.148,2.148-2.148,5.63,0,7.778
		c1.074,1.074,2.481,1.611,3.889,1.611s2.815-0.537,3.889-1.611l15.649-15.649l12.244,12.244l-15.649,15.649
		c-2.148,2.148-2.148,5.63,0,7.778c1.074,1.074,2.481,1.611,3.889,1.611s2.815-0.537,3.889-1.611l15.649-15.649l12.244,12.244
		l-15.649,15.649c-2.148,2.148-2.148,5.63,0,7.778c1.074,1.074,2.481,1.611,3.889,1.611c1.407,0,2.815-0.537,3.889-1.611
		l15.649-15.649l12.244,12.244l-15.649,15.649c-2.148,2.148-2.148,5.63,0,7.778c1.074,1.074,2.481,1.611,3.889,1.611
		s2.815-0.537,3.889-1.611l15.649-15.649l12.244,12.244l-15.649,15.649c-2.148,2.148-2.148,5.63,0,7.778
		c1.074,1.074,2.481,1.611,3.889,1.611s2.815-0.537,3.889-1.611l15.649-15.649l26.766,26.766H98.916z M246.84,188.744
		L383.599,51.985l6.52,6.52L253.36,195.264L246.84,188.744z M239.062,180.966l-6.52-6.52L369.301,37.687l6.52,6.52L239.062,180.966z
		 M226.782,184.243l16.781,16.781l-27.888,11.107L226.782,184.243z M397.898,50.727l-20.818-20.818l12.956-12.956l20.818,20.818
		L397.898,50.727z"/>
	<path d="M387.999,404.36c-2.148-2.148-5.63-2.148-7.778,0s-2.148,5.63,0,7.778l16.97,16.97c1.074,1.074,2.481,1.611,3.889,1.611
		c1.407,0,2.815-0.537,3.889-1.611c2.148-2.148,2.148-5.63,0-7.778L387.999,404.36z"/>
	<path d="M418.403,434.764c-2.148-2.147-5.63-2.146-7.778,0.003c-2.147,2.149-2.146,5.631,0.003,7.778l0.346,0.345
		c1.074,1.073,2.48,1.61,3.888,1.61c1.408,0,2.816-0.538,3.891-1.612c2.147-2.149,2.146-5.631-0.003-7.778L418.403,434.764z"/>
	<path d="M242.483,28.878c1.408,0,2.816-0.537,3.89-1.612l0.877-0.877c2.147-2.148,2.147-5.631-0.001-7.778
		c-2.148-2.148-5.631-2.147-7.778,0.001l-0.877,0.878c-2.147,2.148-2.147,5.63,0.001,7.778
		C239.669,28.341,241.076,28.878,242.483,28.878z"/>
	<path d="M212.077,59.283c1.407,0,2.815-0.537,3.889-1.611l16.971-16.97c2.148-2.148,2.148-5.63,0-7.778
		c-2.148-2.147-5.63-2.148-7.778,0l-16.971,16.97c-2.148,2.148-2.148,5.63,0,7.778C209.262,58.746,210.67,59.283,212.077,59.283z"/>
	<path d="M181.672,89.689c1.407,0,2.815-0.537,3.889-1.611l16.971-16.97c2.148-2.148,2.148-5.63,0-7.778
		c-2.148-2.148-5.63-2.148-7.778,0L177.782,80.3c-2.148,2.148-2.148,5.63,0,7.778C178.857,89.152,180.264,89.689,181.672,89.689z"/>
	<path d="M151.266,120.094c1.408,0,2.815-0.537,3.889-1.611l16.97-16.97c2.148-2.148,2.148-5.63,0-7.778
		c-2.148-2.148-5.631-2.147-7.778,0l-16.97,16.971c-2.148,2.148-2.148,5.63,0,7.778
		C148.451,119.558,149.859,120.094,151.266,120.094z"/>
</g>
<g>
</g>
<g>
</g>
<g>
</g>
<g>
</g>
<g>
</g>
<g>
</g>
<g>
</g>
<g>
</g>
<g>
</g>
<g>
</g>
<g>
</g>
<g>
</g>
<g>
</g>
<g>
</g>
<g>
</g>
</svg>
