<?xml version="1.0" encoding="iso-8859-1"?>
<!-- Generator: Adobe Illustrator 19.0.0, SVG Export Plug-In . SVG Version: 6.00 Build 0)  -->
<svg version="1.1" id="Capa_1" xmlns="http://www.w3.org/2000/svg" xmlns:xlink="http://www.w3.org/1999/xlink" x="0px" y="0px"
	 viewBox="0 0 512 512" style="enable-background:new 0 0 512 512;" xml:space="preserve">
<g>
	<g>
		<path d="M469.333,303.635v-4.969c0-70.26-34.708-135.969-92.833-175.781c-3.083-2.146-7.146-2.438-10.604-0.833
			c-3.417,1.635-5.729,4.969-6.042,8.75l-7.979,95.865c-0.458,5.458-5.083,9.74-11.438,9.74c-0.021,0-0.042,0-0.063,0
			c-2.854-0.24-5.417-1.573-7.271-3.74c-1.833-2.177-2.708-4.938-2.479-7.781l10.667-128c0.25-2.969-0.75-5.917-2.771-8.104
			c-2.021-2.198-4.875-3.448-7.854-3.448h-37.935C285.328,72.642,271.717,64,256,64s-29.328,8.642-36.732,21.333h-37.935
			c-2.979,0-5.833,1.25-7.854,3.448c-2.021,2.188-3.021,5.135-2.771,8.104l10.667,128c0.229,2.844-0.646,5.604-2.479,7.781
			c-1.854,2.167-4.417,3.5-8.167,3.771c-5.5,0-10.146-4.292-10.604-9.781l-7.979-95.844c-0.313-3.781-2.625-7.115-6.042-8.75
			c-3.438-1.625-7.5-1.323-10.604,0.833c-58.125,39.802-92.833,105.51-92.833,175.771v4.969C13.979,313.885,0,326.26,0,341.333
			C0,381.521,119.646,448,256,448s256-66.479,256-106.667C512,326.26,498.021,313.885,469.333,303.635z M277.333,256
			c0,11.76-9.563,21.333-21.333,21.333c-11.699,0-21.176-9.471-21.333-21.941V106.667c0-11.76,9.563-21.333,21.333-21.333
			s21.333,9.573,21.333,21.333V256z"/>
	</g>
</g>
<g>
</g>
<g>
</g>
<g>
</g>
<g>
</g>
<g>
</g>
<g>
</g>
<g>
</g>
<g>
</g>
<g>
</g>
<g>
</g>
<g>
</g>
<g>
</g>
<g>
</g>
<g>
</g>
<g>
</g>
</svg>
