<?xml version="1.0" encoding="iso-8859-1"?>

<!-- Generator: Adobe Illustrator 19.0.0, SVG Export Plug-In . SVG Version: 6.00 Build 0)  -->
<svg version="1.1" id="Capa_1" xmlns="http://www.w3.org/2000/svg" xmlns:xlink="http://www.w3.org/1999/xlink" x="0px" y="0px"
	 viewBox="0 0 512 512" style="enable-background:new 0 0 512 512;" xml:space="preserve">
<g>
	<g>
		<path d="M481.67,242.214v-0.695c0-51.853-18.024-102.496-50.752-142.596c-29.69-36.378-70.237-62.713-115.163-75.056V0H196.246
			v23.867c-44.927,12.343-85.475,38.678-115.164,75.056C48.354,139.024,30.33,189.665,30.33,241.519v0.695
			c-17.495,7.069-29.878,24.218-29.878,44.215v41.957h511.096v-41.957C511.548,266.432,499.165,249.282,481.67,242.214z
			 M104.229,117.812c10.181-12.474,21.836-23.582,34.606-33.124v70.263h29.876V66.258c8.869-4.433,18.076-8.19,27.535-11.228
			v118.714h29.876V29.876h59.758v143.869h29.876V55.029c9.665,3.104,19.069,6.955,28.116,11.514v88.407h29.876V85.124
			c12.543,9.445,23.999,20.402,34.026,32.687c27.806,34.071,43.366,76.921,43.992,120.943H60.236
			C60.862,194.733,76.422,151.883,104.229,117.812z M481.673,298.51h-0.001H30.328v-12.081c0-9.813,7.985-17.798,17.799-17.798
			h415.747c9.814,0,17.799,7.985,17.799,17.798V298.51z"/>
	</g>
</g>
<g>
	<g>
		<path d="M450.415,352.663H61.585v29.878H1.829v99.582h59.755V512H209.18c19.748,0,36.476-14.779,38.912-34.375l2.18-17.537
			c0.463-2.773,2.905-4.852,5.727-4.852c2.822,0,5.264,2.078,5.727,4.852l2.18,17.537C266.342,497.221,283.071,512,302.819,512
			h147.595v-29.878h59.756V382.54h-59.755V352.663z M61.585,452.246h-29.88v-39.83h29.88V452.246z M420.539,482.124H302.82
			c-4.701,0-8.685-3.518-9.265-8.185l-2.207-17.752l-0.044-0.327c-2.552-17.388-17.729-30.5-35.304-30.5s-32.752,13.112-35.304,30.5
			l-2.251,18.079c-0.581,4.667-4.563,8.185-9.265,8.185H91.461v-99.586h329.079V482.124z M480.295,412.416v39.83h-29.88v-39.83
			H480.295z"/>
	</g>
</g>
<g>
</g>
<g>
</g>
<g>
</g>
<g>
</g>
<g>
</g>
<g>
</g>
<g>
</g>
<g>
</g>
<g>
</g>
<g>
</g>
<g>
</g>
<g>
</g>
<g>
</g>
<g>
</g>
<g>
</g>
</svg>
