<?xml version="1.0" encoding="iso-8859-1"?>
<!-- Generator: Adobe Illustrator 19.0.0, SVG Export Plug-In . SVG Version: 6.00 Build 0)  -->
<svg version="1.1" id="Capa_1" xmlns="http://www.w3.org/2000/svg" xmlns:xlink="http://www.w3.org/1999/xlink" x="0px" y="0px"
	 viewBox="0 0 407.312 407.312" style="enable-background:new 0 0 407.312 407.312;" xml:space="preserve">
<g>
	<g>
		<path d="M388.336,64.64l-45.248-45.248c-6.256-6.256-16.384-6.256-22.624,0l-33.952,33.92L354.4,121.2l33.936-33.936
			C394.592,81.008,394.592,70.88,388.336,64.64z"/>
	</g>
</g>
<g>
	<g>
		<polygon points="24.912,314.112 24.912,382.4 93.2,382.4 		"/>
	</g>
</g>
<g>
	<g>
		<polygon points="90.512,0.016 0,90.528 45.264,135.776 67.888,113.152 79.2,124.464 56.576,147.088 79.2,169.712 124.464,124.464 
			135.776,135.776 90.512,181.024 113.152,203.648 203.664,113.152 		"/>
	</g>
</g>
<g>
	<g>
		<polygon points="283.056,192.544 331.76,143.824 263.888,75.936 47.68,292.16 115.568,360.032 215.168,260.432 226.288,271.536 
			203.664,294.16 226.288,316.8 271.536,271.536 282.848,282.848 237.6,328.112 260.224,350.736 282.848,328.112 294.16,339.424 
			271.536,362.048 316.8,407.296 407.312,316.784 		"/>
	</g>
</g>
<g>
</g>
<g>
</g>
<g>
</g>
<g>
</g>
<g>
</g>
<g>
</g>
<g>
</g>
<g>
</g>
<g>
</g>
<g>
</g>
<g>
</g>
<g>
</g>
<g>
</g>
<g>
</g>
<g>
</g>
</svg>
