<?xml version="1.0" encoding="iso-8859-1"?>
<!-- Generator: Adobe Illustrator 16.0.0, SVG Export Plug-In . SVG Version: 6.00 Build 0)  -->
<!DOCTYPE svg PUBLIC "-//W3C//DTD SVG 1.1//EN" "http://www.w3.org/Graphics/SVG/1.1/DTD/svg11.dtd">
<svg version="1.1" id="Capa_1" xmlns="http://www.w3.org/2000/svg" xmlns:xlink="http://www.w3.org/1999/xlink" x="0px" y="0px"
	 width="988.6px" height="988.6px" viewBox="0 0 988.6 988.6" style="enable-background:new 0 0 988.6 988.6;" xml:space="preserve"
	>
<g>
	<g>
		<path d="M556.8,602.8c-3.8-6.6-12-9.3-19-6.3c-13.3,5.8-28,8.899-43.399,8.899c-15.301,0-29.9-3.199-43.2-8.899
			c-7-3-15.2-0.4-19,6.3l-106,184.7c-4.3,7.399-1.5,16.899,6.1,20.8c25.7,13.2,85.3,38.9,161.2,39.3l0,0c0,0,0.7,0,0.9,0
			c0.3,0,0.899,0,0.899,0l0,0c75.3-0.399,135.3-26.1,161.2-39.3c7.6-3.9,10.5-13.4,6.2-20.8L556.8,602.8z"/>
		<path d="M385.5,483.8c3.6-30.6,19.7-57.8,43-75.5c6.1-4.6,7.8-13,3.9-19.5L325,205c-4.3-7.4-14-9.7-21.1-5
			c-24.3,15.8-76.4,55-114.2,120.2l0,0c-0.3,0.5-0.3,0.5-0.4,0.7c-0.1,0.2-0.4,0.7-0.4,0.7l0,0c-37.3,65.9-44.8,130.7-46.1,159.601
			c-0.4,8.6,6.4,15.699,15,15.699h213C378.2,497,384.6,491.3,385.5,483.8z"/>
		<path d="M799.8,321.6c0,0-0.3-0.5-0.399-0.7c-0.101-0.2-0.101-0.2-0.4-0.7l0,0C761.2,255,709.1,215.8,684.8,200
			c-7.2-4.7-16.8-2.4-21.1,5L556.2,388.8c-3.8,6.6-2.101,14.9,3.899,19.5c23.301,17.7,39.4,44.9,43,75.5
			C604,491.3,610.4,497,618,497h213c8.6,0,15.4-7.101,15-15.7C844.6,452.399,837.2,387.6,799.8,321.6L799.8,321.6z"/>
		<path d="M421,496.5c0.2,26.8,14.8,50.1,36.4,62.7c10.8,6.3,23.5,10,36.899,10c13.5,0,26.2-3.7,37.101-10
			c21.5-12.601,36-35.9,36.3-62.7c0-0.2,0-0.4,0-0.601c0-27.199-14.8-50.899-36.7-63.5c-10.8-6.199-23.3-9.8-36.6-9.8
			c-13.301,0-25.801,3.601-36.601,9.8c-21.899,12.7-36.7,36.4-36.7,63.5C421,496.1,421,496.3,421,496.5z"/>
		<path d="M843.8,144.8c-45.3-45.4-98.2-81-157.1-105.9C625.7,13.1,561,0,494.3,0S362.9,13.1,301.9,38.9
			C243,63.8,190.2,99.4,144.8,144.8c-45.4,45.4-81,98.2-105.9,157.1C13.1,362.8,0,427.6,0,494.3s13.1,131.4,38.9,192.4
			C63.8,745.6,99.4,798.399,144.8,843.8c45.4,45.4,98.2,81,157.101,105.9C362.9,975.5,427.6,988.6,494.3,988.6
			s131.4-13.1,192.4-38.899c58.899-24.9,111.8-60.5,157.1-105.9c45.4-45.4,81-98.2,105.9-157.1c25.8-61,38.899-125.7,38.899-192.4
			s-13.1-131.5-38.8-192.4C924.9,243,889.2,190.2,843.8,144.8z M862.3,649.7c-20.1,47.5-48.899,90.199-85.6,126.899
			s-79.4,65.5-126.9,85.601C600.6,883,548.3,893.6,494.4,893.6c-53.9,0-106.2-10.6-155.4-31.399
			c-47.5-20.101-90.2-48.9-126.9-85.601c-36.7-36.7-65.5-79.399-85.6-126.899c-20.8-49.2-31.4-101.5-31.4-155.4
			s10.6-106.2,31.4-155.4c20.1-47.5,48.9-90.2,85.6-126.9c36.7-36.7,79.4-65.5,126.9-85.6C388.2,105.6,440.5,95,494.4,95
			C548.3,95,600.6,105.6,649.8,126.4c47.5,20.1,90.2,48.9,126.9,85.6c36.7,36.7,65.5,79.4,85.6,126.9
			c20.8,49.2,31.4,101.5,31.4,155.4S883.1,600.5,862.3,649.7z"/>
	</g>
</g>
<g>
</g>
<g>
</g>
<g>
</g>
<g>
</g>
<g>
</g>
<g>
</g>
<g>
</g>
<g>
</g>
<g>
</g>
<g>
</g>
<g>
</g>
<g>
</g>
<g>
</g>
<g>
</g>
<g>
</g>
</svg>
